<svg id="Layer_1" data-name="Layer 1" xmlns="http://www.w3.org/2000/svg" viewBox="0 0 148.88 148.06"><defs><style>.cls-1{fill:#fff;stroke:#fff;stroke-miterlimit:10;}.cls-2{fill:none;}</style></defs><title>search</title><path class="cls-1" d="M288.41,338.27l38.77,35.35c-10.18,15.74-8.33,17.88-24,1.89-8-8.19-17.52-18.94-24.59-26.7-41.39,17.28-70.36,11.78-88.76-15.41A60.2,60.2,0,0,1,273.67,250C300.83,268.78,306.44,298.14,288.41,338.27Zm-47.64,7.79c25.26,0.11,45.8-20.25,45.3-44.9-0.49-23.71-20.85-43.83-44.59-44.06-25-.24-44.78,19.95-44.5,45.4C197.25,327.6,215.7,346,240.76,346.06Z" transform="translate(-178.95 -238.95)"/><path class="cls-2" d="M239.68,345.18c-25.07-.11-43.52-18.46-43.79-43.56-0.28-25.45,19.51-45.63,44.5-45.4,23.73,0.23,44.1,20.35,44.59,44.06C285.49,324.93,264.95,345.29,239.68,345.18Z" transform="translate(-178.95 -238.95)"/></svg>